<?xml version="1.0" standalone="no"?>
<!DOCTYPE svg PUBLIC "-//W3C//DTD SVG 20010904//EN"
 "http://www.w3.org/TR/2001/REC-SVG-20010904/DTD/svg10.dtd">
<svg version="1.0" xmlns="http://www.w3.org/2000/svg"
 width="100.000000pt" height="100.000000pt" viewBox="0 0 100.000000 100.000000"
 preserveAspectRatio="xMidYMid meet">
<metadata>
Created by potrace 1.11, written by Peter Selinger 2001-2013
</metadata>
<g transform="translate(0.000000,100.000000) scale(0.100000,-0.100000)"
fill="#000000" stroke="none">
<path d="M857 843 c-2 -1 -494 -110 -582 -129 -11 -2 -33 -7 -50 -10 -46 -10
-56 -23 -50 -61 4 -29 3 -34 -12 -29 -54 15 -155 38 -158 35 -6 -8 79 -379 88
-379 4 0 35 23 68 50 33 28 64 50 68 50 5 0 11 -13 14 -29 3 -16 12 -31 19
-34 8 -2 74 8 147 24 l133 29 29 -31 c24 -26 29 -40 29 -83 0 -115 8 -119 218
-121 126 -1 165 2 174 12 25 30 -8 38 -165 38 -83 0 -158 4 -164 8 -8 5 -13
30 -13 65 0 46 4 60 20 69 11 7 23 27 28 45 8 31 12 34 83 50 41 10 85 19 99
22 51 8 109 27 116 37 7 12 -65 348 -79 366 -7 10 -52 15 -60 6z"/>
</g>
</svg>
